<svg width="50" height="50" viewBox="0 0 50 50" fill="none" xmlns="http://www.w3.org/2000/svg">
<g clip-path="url(#clip0_326_5)">
<path d="M32.2499 35.8002C28.2316 38.9217 23.1748 40.3942 18.1089 39.9181C13.0431 39.442 8.34918 37.0529 4.98296 33.2374C1.61674 29.4219 -0.168683 24.4669 -0.00976448 19.3812C0.149154 14.2955 2.24046 9.46161 5.83834 5.86373C9.43622 2.26586 14.2701 0.174545 19.3558 0.0156261C24.4415 -0.143293 29.3966 1.64213 33.2121 5.00835C37.0275 8.37457 39.4166 13.0685 39.8927 18.1343C40.3689 23.2002 38.8963 28.257 35.7749 32.2752L49.1499 45.6002L45.5999 49.1502L32.2749 35.8002H32.2499ZM19.9999 35.0002C21.9697 35.0002 23.9202 34.6123 25.7401 33.8584C27.56 33.1046 29.2136 31.9997 30.6065 30.6068C31.9993 29.214 33.1042 27.5604 33.8581 25.7405C34.6119 23.9206 34.9999 21.9701 34.9999 20.0002C34.9999 18.0304 34.6119 16.0799 33.8581 14.26C33.1042 12.4401 31.9993 10.7865 30.6065 9.39364C29.2136 8.00077 27.56 6.89587 25.7401 6.14205C23.9202 5.38823 21.9697 5.00025 19.9999 5.00025C16.0216 5.00025 12.2063 6.5806 9.39325 9.39364C6.58021 12.2067 4.99986 16.022 4.99986 20.0002C4.99986 23.9785 6.58021 27.7938 9.39325 30.6068C12.2063 33.4199 16.0216 35.0002 19.9999 35.0002Z" fill="white"/>
</g>
<defs>
<clipPath id="clip0_326_5">
<rect width="50" height="50" fill="white"/>
</clipPath>
</defs>
</svg>
