<?xml version="1.0" encoding="UTF-8"?>
<svg version="1.1" xmlns="http://www.w3.org/2000/svg" width="705" height="448">
<path d="M0 0 C0.86303238 -0.00701431 1.72606476 -0.01402863 2.61524963 -0.02125549 C5.38417843 -0.03866251 8.1528935 -0.04510744 10.921875 -0.046875 C11.86694916 -0.04754974 12.81202332 -0.04822449 13.78573608 -0.04891968 C27.30627784 -0.03355363 40.41835473 0.29354115 53.671875 3.203125 C54.52362305 3.38004883 55.37537109 3.55697266 56.25292969 3.73925781 C116.99463832 16.49567758 167.89065675 52.45652096 201.93896484 104.12597656 C218.671875 130.09965536 218.671875 130.09965536 218.671875 137.203125 C206.461875 137.203125 194.251875 137.203125 181.671875 137.203125 C178.701875 131.923125 175.731875 126.643125 172.671875 121.203125 C170.93395006 118.56027253 169.24621524 116.03035493 167.359375 113.515625 C166.75512695 112.68514648 166.75512695 112.68514648 166.13867188 111.83789062 C163.73628159 108.55553243 161.23327276 105.36237762 158.671875 102.203125 C155.4023975 102.84690201 153.01666656 104.04177311 150.1875 105.78515625 C149.33414062 106.30529297 148.48078125 106.82542969 147.6015625 107.36132812 C146.71726562 107.90724609 145.83296875 108.45316406 144.921875 109.015625 C138.94555776 112.69097143 132.99933305 116.16447364 126.671875 119.203125 C126.80609863 119.80713135 126.94032227 120.4111377 127.07861328 121.03344727 C128.27636719 126.42333984 129.47412109 131.81323242 130.671875 137.203125 C119.121875 137.203125 107.571875 137.203125 95.671875 137.203125 C95.341875 135.883125 95.011875 134.563125 94.671875 133.203125 C93.86854736 133.48571167 93.06521973 133.76829834 92.23754883 134.05944824 C78.54127637 138.20239532 64.69753093 137.79275677 50.51797867 137.74042702 C46.8553175 137.73015812 43.19269244 137.73973057 39.5300293 137.74597168 C33.384203 137.75320833 27.23857022 137.74376609 21.09277344 137.72460938 C14.03076126 137.7028482 6.96921135 137.70990243 -0.09278965 137.731915 C-6.20290558 137.75018368 -12.31288398 137.75257187 -18.42301846 137.74216032 C-22.051834 137.73598778 -25.68043374 137.73491415 -29.30923462 137.74830627 C-58.14461442 137.84069027 -58.14461442 137.84069027 -71.328125 133.203125 C-71.658125 134.523125 -71.988125 135.843125 -72.328125 137.203125 C-83.878125 137.203125 -95.428125 137.203125 -107.328125 137.203125 C-106.008125 132.253125 -104.688125 127.303125 -103.328125 122.203125 C-103.328125 121.213125 -103.328125 120.223125 -103.328125 119.203125 C-104.41609375 118.64625 -105.5040625 118.089375 -106.625 117.515625 C-114.78334722 113.29171403 -122.49779596 108.99639969 -129.91015625 103.5390625 C-132.16421781 101.98652355 -132.16421781 101.98652355 -134.32421875 102.44140625 C-137.76483217 103.74924176 -139.46699561 106.91367346 -141.515625 109.828125 C-141.99249756 110.49239502 -142.46937012 111.15666504 -142.96069336 111.84106445 C-148.67007734 119.91314847 -153.90527529 128.35742559 -158.328125 137.203125 C-170.538125 137.203125 -182.748125 137.203125 -195.328125 137.203125 C-171.63593644 80.34187246 -126.65372067 38.2540905 -70.23828125 14.44921875 C-48.36566067 5.60614288 -23.6128597 0.1288433 0 0 Z M-29.828125 53.390625 C-42.91347008 66.96859484 -51.73966049 83.60273643 -60.328125 100.203125 C-58.0547875 102.4764625 -56.83282844 102.7890047 -53.76953125 103.60546875 C-52.36828003 103.97925659 -52.36828003 103.97925659 -50.9387207 104.3605957 C-49.93284912 104.61800537 -48.92697754 104.87541504 -47.890625 105.140625 C-46.8596167 105.40641357 -45.8286084 105.67220215 -44.76635742 105.94604492 C-31.32324291 109.31949598 -18.15621049 111.05078454 -4.328125 112.203125 C-4.328125 87.123125 -4.328125 62.043125 -4.328125 36.203125 C-13.00561203 36.203125 -23.85150972 47.73593513 -29.828125 53.390625 Z M27.671875 36.203125 C27.671875 61.283125 27.671875 86.363125 27.671875 112.203125 C43.5413145 110.59856226 43.5413145 110.59856226 59.109375 107.828125 C60.6253125 107.50485229 60.6253125 107.50485229 62.171875 107.17504883 C69.18376134 105.63865405 75.97925443 103.83027211 82.671875 101.203125 C80.15126303 81.79065076 60.25731684 58.57515029 45.49609375 46.54296875 C37.34634082 39.61017394 37.34634082 39.61017394 27.671875 36.203125 Z M93.671875 51.203125 C95.10689263 55.16754239 97.01605615 58.47626667 99.296875 62.015625 C102.95557834 67.78254717 106.04902071 73.73816583 108.96923828 79.90942383 C110.60464855 83.31221443 111.96009661 85.49134661 114.671875 88.203125 C120.611875 84.903125 126.551875 81.603125 132.671875 78.203125 C132.671875 77.213125 132.671875 76.223125 132.671875 75.203125 C130.52492249 73.34547815 128.41973747 71.71045247 126.109375 70.078125 C125.43696777 69.59529053 124.76456055 69.11245605 124.07177734 68.61499023 C114.49968325 61.83837512 104.57513379 55.60268557 93.671875 51.203125 Z M-71.328125 51.203125 C-80.47933996 55.73864581 -89.22948603 60.54742991 -97.578125 66.453125 C-98.27993896 66.94780273 -98.98175293 67.44248047 -99.70483398 67.95214844 C-103.60332489 70.76696379 -107.03132228 73.7018694 -110.328125 77.203125 C-108.31098223 78.48014321 -106.2897317 79.74972694 -104.265625 81.015625 C-103.42354492 81.55026367 -103.42354492 81.55026367 -102.56445312 82.09570312 C-98.61160684 84.55776167 -94.64725046 86.45896861 -90.328125 88.203125 C-90.07232666 87.70611084 -89.81652832 87.20909668 -89.55297852 86.69702148 C-84.66336871 77.22605751 -79.72786297 67.84789104 -74.02172852 58.83764648 C-71.80633061 55.30390301 -71.80633061 55.30390301 -71.328125 51.203125 Z " fill="#FFFFFF" transform="translate(338.328125,-0.203125)"/>
<path d="M0 0 C31.12219156 -2.84010328 31.12219156 -2.84010328 38.59130859 1.50878906 C42.36206539 5.50633556 44.1020198 10.37008091 45.93212891 15.47558594 C47.79048915 19.86869178 50.73461567 23.41609591 53.6875 27.125 C54.71316394 28.46022796 55.73799595 29.79609568 56.76171875 31.1328125 C57.50035156 32.07898438 58.23898438 33.02515625 59 34 C62.2694775 33.35622299 64.65520844 32.16135189 67.484375 30.41796875 C68.76441406 29.63776367 68.76441406 29.63776367 70.0703125 28.84179688 C70.95460938 28.29587891 71.83890625 27.74996094 72.75 27.1875 C78.72631724 23.51215357 84.67254195 20.03865136 91 17 C90.78428345 16.07960938 90.78428345 16.07960938 90.56420898 15.140625 C89.3717708 10.05288874 88.65620116 5.24960927 88 0 C99.22 0 110.44 0 122 0 C122.495 1.485 122.495 1.485 123 3 C123.70142624 2.78794104 124.40285248 2.57588207 125.12553406 2.35739708 C133.26895809 0.08566886 140.7824494 -0.42860035 149.20703125 -0.38818359 C150.58833224 -0.39226002 151.96962995 -0.39760785 153.35092163 -0.40411377 C157.06585732 -0.41766616 160.78054008 -0.41253935 164.49547958 -0.40297651 C168.40560273 -0.39531663 172.31570597 -0.40244293 176.22583008 -0.40713501 C182.78893879 -0.4125743 189.35194583 -0.40544918 195.91503906 -0.39111328 C203.47457307 -0.37479026 211.03386424 -0.38008007 218.59339237 -0.3965925 C225.11438336 -0.4102597 231.63530175 -0.41210158 238.15630245 -0.40427649 C242.03764252 -0.39962859 245.91886891 -0.3988948 249.80020142 -0.40888596 C253.45132288 -0.41763009 257.10213495 -0.41139992 260.75322342 -0.39420319 C262.71172932 -0.38842334 264.67026177 -0.39718987 266.62875366 -0.40658569 C274.49034289 -0.35088477 281.47191635 0.72406915 289 3 C289.33 2.01 289.66 1.02 290 0 C301.22 0 312.44 0 324 0 C323.3978888 4.2147784 322.79025811 8.28741052 321.9375 12.4375 C321.76089844 13.30246094 321.58429688 14.16742188 321.40234375 15.05859375 C321.26957031 15.69925781 321.13679688 16.33992188 321 17 C322.08796875 17.556875 323.1759375 18.11375 324.296875 18.6875 C332.45522222 22.91141097 340.16967096 27.20672531 347.58203125 32.6640625 C349.83609281 34.21660145 349.83609281 34.21660145 351.99609375 33.76171875 C355.43679806 32.45384869 357.13866793 29.28937757 359.1875 26.375 C359.90280884 25.37968262 359.90280884 25.37968262 360.63256836 24.36425781 C364.81929561 18.44981845 368.58405808 12.30960182 372.22265625 6.046875 C373.42014406 3.99403876 374.6817128 1.97743079 376 0 C378.76628915 -0.2667616 381.30619631 -0.34804189 384.0703125 -0.29296875 C385.26465408 -0.28660149 385.26465408 -0.28660149 386.48312378 -0.28010559 C389.03075729 -0.26328834 391.57760489 -0.22563179 394.125 -0.1875 C395.85024901 -0.17245705 397.57551039 -0.15876796 399.30078125 -0.14648438 C403.53415782 -0.11337501 407.76694559 -0.06157285 412 0 C410.09161242 6.29267157 407.70549868 12.06885036 404.625 17.875 C404.19582275 18.68582031 403.76664551 19.49664062 403.32446289 20.33203125 C376.72841419 69.35979084 329.45507597 109.37443736 276 126 C256.99732495 131.60097279 237.56316482 136.0945884 217.671875 136.203125 C216.80884262 136.21013931 215.94581024 136.21715363 215.05662537 136.22438049 C212.28769657 136.24178751 209.5189815 136.24823244 206.75 136.25 C205.33238876 136.25101212 205.33238876 136.25101212 203.88613892 136.25204468 C190.36559716 136.23667863 177.25352027 135.90958385 164 133 C163.14825195 132.82307617 162.29650391 132.64615234 161.41894531 132.46386719 C101.59175552 119.89950633 50.89142785 84.7325386 17 34 C12.01030422 26.335083 7.57635997 18.40311109 3.4375 10.25 C2.91687988 9.22990845 2.91687988 9.22990845 2.38574219 8.18920898 C0.94091387 5.27028532 0 3.300996 0 0 Z M222 24 C222 49.08 222 74.16 222 100 C227.08792261 98.3040258 230.59632729 96.5191326 234.8125 93.4375 C235.42706055 92.99059814 236.04162109 92.54369629 236.67480469 92.08325195 C255.90845648 77.81450739 267.21366084 56.84859536 278 36 C275.7266625 33.7266625 274.50470344 33.4141203 271.44140625 32.59765625 C270.50723877 32.34846436 269.57307129 32.09927246 268.6105957 31.8425293 C267.60472412 31.58511963 266.59885254 31.32770996 265.5625 31.0625 C264.5314917 30.79671143 263.5004834 30.53092285 262.43823242 30.25708008 C248.99511791 26.88362902 235.82808549 25.15234046 222 24 Z M135 35 C137.52061197 54.41247424 157.41455816 77.62797471 172.17578125 89.66015625 C180.32553418 96.59295106 180.32553418 96.59295106 190 100 C190 74.92 190 49.84 190 24 C172.22015277 24 151.37237969 28.14239152 135 35 Z M308 48 C307.74420166 48.49701416 307.48840332 48.99402832 307.22485352 49.50610352 C302.33524371 58.97706749 297.39973797 68.35523396 291.69360352 77.36547852 C289.47820561 80.89922199 289.47820561 80.89922199 289 85 C298.15121496 80.46447919 306.90136103 75.65569509 315.25 69.75 C315.95181396 69.25532227 316.65362793 68.76064453 317.37670898 68.25097656 C321.27519989 65.43616121 324.70319728 62.5012556 328 59 C325.98285723 57.72298179 323.9616067 56.45339806 321.9375 55.1875 C321.37611328 54.83107422 320.81472656 54.47464844 320.23632812 54.10742188 C316.28348184 51.64536333 312.31912546 49.74415639 308 48 Z M103 48 C97.06 51.3 91.12 54.6 85 58 C85 58.99 85 59.98 85 61 C87.14695251 62.85764685 89.25213753 64.49267253 91.5625 66.125 C92.57111084 66.84925171 92.57111084 66.84925171 93.60009766 67.58813477 C103.17219175 74.36474988 113.09674121 80.60043943 124 85 C122.56498237 81.03558261 120.65581885 77.72685833 118.375 74.1875 C114.71629666 68.42057783 111.62285429 62.46495917 108.70263672 56.29370117 C107.06722645 52.89091057 105.71177839 50.71177839 103 48 Z " fill="#FFFFFF" transform="translate(144,312)"/>
<path d="M0 0 C1.34888732 0.00015905 2.69778075 0.00584927 4.04663086 0.01586914 C5.10991859 0.01799156 5.10991859 0.01799156 6.19468689 0.02015686 C8.46699173 0.02577096 10.73919936 0.03832576 13.01147461 0.05102539 C14.54858257 0.05603858 16.08569206 0.0606018 17.62280273 0.06469727 C21.39823103 0.07574497 25.17358632 0.09301898 28.94897461 0.11352539 C31.61863922 6.57291675 34.28786489 13.03248936 36.95678711 19.4921875 C37.86456384 21.68916929 38.77244062 23.88610974 39.68041992 26.08300781 C40.98634803 29.24281089 42.29191492 32.40276301 43.59741211 35.56274414 C44.20533096 37.03332527 44.20533096 37.03332527 44.82553101 38.53361511 C45.39589584 39.91448051 45.39589584 39.91448051 45.9777832 41.32324219 C46.31087494 42.12932419 46.64396667 42.93540619 46.9871521 43.76591492 C47.98836525 46.20966982 48.97148108 48.66019728 49.94897461 51.11352539 C52.04470024 49.01779976 52.69594207 47.63896723 53.79663086 44.92675781 C54.15039795 44.06213425 54.50416504 43.19751068 54.86865234 42.3066864 C55.24578369 41.37024796 55.62291504 40.43380951 56.01147461 39.46899414 C56.40343018 38.50705643 56.79538574 37.54511871 57.19921875 36.55403137 C58.45389005 33.47160335 59.70148897 30.38636756 60.94897461 27.30102539 C61.78966035 25.23247897 62.6308007 23.16411724 63.47241211 21.09594727 C66.31385952 14.10818858 69.15044111 7.11859732 71.94897461 0.11352539 C76.48795166 0.08887147 81.02689004 0.0706875 85.56591797 0.05859375 C87.11117227 0.05355399 88.65642177 0.0467222 90.20166016 0.03808594 C92.4182249 0.02600463 94.63472679 0.02029366 96.85131836 0.01586914 C97.54611801 0.01070786 98.24091766 0.00554657 98.95677185 0.00022888 C100.62126791 0.00003262 102.2856296 0.0516341 103.94897461 0.11352539 C105.81585037 1.98040116 105.06903959 4.65633987 105.07339478 7.1398468 C105.06800186 8.43888191 105.06800186 8.43888191 105.0625 9.76416016 C105.06264603 10.67138824 105.06279205 11.57861633 105.0629425 12.51333618 C105.06224302 15.52722524 105.05444895 18.54105332 105.04663086 21.55493164 C105.04476681 23.63858506 105.04334284 25.72223893 105.04234314 27.80589294 C105.03851695 33.30175985 105.02868581 38.79760052 105.01763916 44.29345703 C105.00742721 49.89688766 105.00284598 55.50032252 104.99780273 61.10375977 C104.98706363 72.10702839 104.96946602 83.1102706 104.94897461 94.11352539 C96.36897461 94.11352539 87.78897461 94.11352539 78.94897461 94.11352539 C78.61897461 77.94352539 78.28897461 61.77352539 77.94897461 45.11352539 C73.1923692 57.16884362 73.1923692 57.16884362 68.4362793 69.22436523 C66.88547481 73.15513386 65.33197504 77.08483255 63.77783203 81.01428223 C63.05149139 82.85388163 62.32901607 84.69500624 61.60717773 86.53637695 C61.25075195 87.44097656 60.89432617 88.34557617 60.52709961 89.27758789 C60.23738281 90.01702637 59.94766602 90.75646484 59.64916992 91.51831055 C58.94897461 93.11352539 58.94897461 93.11352539 57.94897461 94.11352539 C55.41848059 94.18666106 52.91592624 94.20600066 50.38647461 94.17602539 C49.32009766 94.16925781 49.32009766 94.16925781 48.23217773 94.16235352 C46.47107448 94.15053403 44.71001425 94.13259802 42.94897461 94.11352539 C39.89698585 88.24705672 37.38084382 82.3327198 35.05834961 76.14477539 C34.74784668 75.3271875 34.43734375 74.50959961 34.11743164 73.66723633 C32.97335 70.651072 31.83657643 67.63213966 30.69897461 64.61352539 C28.14147461 57.84852539 25.58397461 51.08352539 22.94897461 44.11352539 C22.61897461 60.61352539 22.28897461 77.11352539 21.94897461 94.11352539 C13.36897461 94.11352539 4.78897461 94.11352539 -4.05102539 94.11352539 C-4.07357496 82.00510263 -4.09193963 69.8966937 -4.10283756 57.78825474 C-4.10806675 52.16644577 -4.11516505 46.54465186 -4.12646484 40.92285156 C-4.13729245 35.50234262 -4.14330195 30.08184819 -4.14590263 24.66132927 C-4.14775711 22.58837594 -4.15137816 20.51542345 -4.15675545 18.44247627 C-4.16396419 15.54968646 -4.1650164 12.65695744 -4.16455078 9.76416016 C-4.16814606 8.89813675 -4.17174133 8.03211334 -4.17544556 7.1398468 C-4.16319647 0.15490809 -4.16319647 0.15490809 0 0 Z " fill="#FFFFFF" transform="translate(399.051025390625,175.886474609375)"/>
<path d="M0 0 C9.57 0 19.14 0 29 0 C30.22787141 5.29760872 31.45501366 10.59537655 32.68041992 15.89355469 C33.09602818 17.68954744 33.51203234 19.48544863 33.9284668 21.28125 C34.53282475 23.88777093 35.13593301 26.49457644 35.73828125 29.1015625 C35.93438995 29.94954407 36.13049866 30.79752563 36.33255005 31.67120361 C37.77704938 37.94972564 39.12672268 44.24268179 40.41088867 50.55615234 C40.75897583 52.9328786 40.75897583 52.9328786 42 54 C42.17317245 53.33823257 42.34634491 52.67646515 42.52476501 51.99464417 C44.32122937 45.13230719 46.12245934 38.27123412 47.92651367 31.41088867 C48.59994908 28.84741068 49.2721518 26.28360854 49.94311523 23.71948242 C50.90548116 20.04260537 51.87221524 16.36690136 52.83984375 12.69140625 C53.14091537 11.53725723 53.441987 10.38310822 53.75218201 9.19398499 C54.032397 8.13296066 54.312612 7.07193634 54.60131836 5.97875977 C54.97105019 4.56978172 54.97105019 4.56978172 55.34825134 3.13233948 C56 1 56 1 57 0 C58.63472882 -0.08700342 60.27314055 -0.10701063 61.91015625 -0.09765625 C63.39418945 -0.09282227 63.39418945 -0.09282227 64.90820312 -0.08789062 C65.94912109 -0.07951172 66.99003906 -0.07113281 68.0625 -0.0625 C69.62967773 -0.05573242 69.62967773 -0.05573242 71.22851562 -0.04882812 C73.8190666 -0.03699913 76.40950559 -0.02051689 79 0 C81.41553112 6.109426 83.23383477 12.23441869 84.8828125 18.58984375 C85.14254852 19.57497452 85.40228455 20.56010529 85.66989136 21.5750885 C86.49219365 24.69487447 87.30915063 27.81602081 88.125 30.9375 C88.94826221 34.08389775 89.77275691 37.2299428 90.60153198 40.37489319 C91.11567081 42.32604413 91.62660344 44.27804321 92.13406372 46.23094177 C92.36455414 47.10597855 92.59504456 47.98101532 92.83251953 48.88256836 C93.03442902 49.65563828 93.2363385 50.42870819 93.44436646 51.22520447 C93.85124839 53.00576432 93.85124839 53.00576432 95 54 C98.96 36.18 102.92 18.36 107 0 C116.57 0 126.14 0 136 0 C135.27560853 5.07074029 134.37693633 9.63407882 132.93041992 14.48901367 C132.72212051 15.20227814 132.51382111 15.9155426 132.29920959 16.65042114 C131.61433825 18.99101452 130.92254699 21.32949718 130.23046875 23.66796875 C129.74787407 25.31062905 129.26564659 26.95339728 128.7837677 28.5962677 C127.77379111 32.03585079 126.76059746 35.47446349 125.74487305 38.91235352 C124.45245052 43.28708071 123.16614075 47.66357385 121.88204479 52.04075146 C120.88604724 55.43450323 119.88769718 58.82755928 118.8885746 62.22039223 C118.41410645 63.83194882 117.940124 65.4436485 117.46666527 67.05550194 C114.80817695 76.09807889 112.04340173 85.07714841 109 94 C100.75 94 92.5 94 84 94 C80.62413972 86.12299267 80.62413972 86.12299267 79.55786133 82.58105469 C79.3178389 81.7904364 79.07781647 80.99981812 78.83052063 80.1852417 C78.46001839 78.94112518 78.46001839 78.94112518 78.08203125 77.671875 C77.81992355 76.80105286 77.55781586 75.93023071 77.2877655 75.03302002 C76.73872437 73.2049131 76.19174316 71.37618637 75.64672852 69.546875 C74.81038129 66.7428967 73.96519305 63.94168822 73.11914062 61.140625 C72.58540752 59.35953373 72.05218624 57.57828899 71.51953125 55.796875 C71.26645706 54.95936707 71.01338287 54.12185913 70.75263977 53.25897217 C70.40679085 52.0919577 70.40679085 52.0919577 70.05395508 50.90136719 C69.84982498 50.21854675 69.64569489 49.53572632 69.43537903 48.83221436 C69 47 69 47 69 44 C68.34 44 67.68 44 67 44 C66.8956665 44.94689697 66.79133301 45.89379395 66.68383789 46.86938477 C65.98134683 51.75742095 64.51219885 56.38098326 63.05859375 61.08984375 C62.77146011 62.03436905 62.48432648 62.97889435 62.18849182 63.95204163 C61.27631358 66.94868914 60.35702163 69.94309864 59.4375 72.9375 C58.81528313 74.97706958 58.19353331 77.01678171 57.57226562 79.05664062 C56.05444418 84.03971531 54.5270099 89.01969649 53 94 C44.42 94 35.84 94 27 94 C21.26740615 75.52167377 15.70768856 57.00173661 10.27880859 38.43237305 C9.19571773 34.72842479 8.10712105 31.02611673 7.01737976 27.32412052 C6.16881092 24.43823893 5.32386114 21.55130727 4.47994995 18.66406059 C4.07936345 17.29572644 3.6774647 15.92777572 3.27420044 14.56022835 C2.71805151 12.67286292 2.16747959 10.78385679 1.6171875 8.89477539 C1.30378418 7.82514053 0.99038086 6.75550568 0.66748047 5.65345764 C0 3 0 3 0 0 Z " fill="#FFFFFF" transform="translate(168,176)"/>
<path d="M0 0 C22 0 22 0 27.84765625 5.45703125 C29.19006348 7.34558105 29.19006348 7.34558105 30.05273438 9.02539062 C30.38619873 9.65034424 30.71966309 10.27529785 31.06323242 10.91918945 C31.39299072 11.54398193 31.72274902 12.16877441 32.0625 12.8125 C32.75999551 14.00511816 33.46508286 15.19332908 34.17773438 16.37695312 C36.47689328 20.2364773 38.73745046 24.11890117 41 28 C47.435 37.405 47.435 37.405 54 47 C54.33 31.49 54.66 15.98 55 0 C63.58 0 72.16 0 81 0 C81 31.02 81 62.04 81 94 C73.41 94 65.82 94 58 94 C51.58657638 86.75004286 51.58657638 86.75004286 50.109375 83.34375 C48.01384066 78.87220826 45.37066007 75.00492087 42.5 71 C37.21044752 63.41450268 32.13080868 55.69621303 27 48 C26.67 63.18 26.34 78.36 26 94 C17.42 94 8.84 94 0 94 C0 62.98 0 31.96 0 0 Z " fill="#FFFFFF" transform="translate(0,176)"/>
<path d="M0 0 C10.83972318 10.53861976 15.22229761 23.69598822 15.625 38.6875 C15.21960133 52.57240431 11.62423639 64.67474306 2.125 75 C-7.76194399 84.25656837 -19.95968508 87.71225481 -33.28125 87.375 C-45.78535521 86.42532112 -57.16861739 81.5965404 -65.9453125 72.48828125 C-76.25277247 59.34738532 -78.13644135 43.54478816 -76.1875 27.375 C-74.03672737 15.87434079 -68.13527436 5.2847494 -58.75 -1.8125 C-39.91476499 -13.59724839 -18.33202396 -12.08247034 0 0 Z M-45.125 19.625 C-50.62689871 28.30107105 -50.82494273 38.95008186 -49.125 48.875 C-47.4845884 55.26457527 -44.02082988 59.84182304 -38.375 63.1875 C-31.46939015 65.09249582 -26.70858385 64.84360355 -20.5078125 61.390625 C-15.53299674 57.98563999 -13.50798504 53.29523868 -12.125 47.625 C-11.04083502 37.68682105 -10.75190647 27.14265368 -17 18.75 C-21.26103872 14.77948665 -24.92664332 13.39009519 -30.6875 12.75 C-36.52445541 12.99934567 -41.10040046 15.49448995 -45.125 19.625 Z " fill="#FFFFFF" transform="translate(590.75,184.8125)"/>
<path d="M0 0 C11.88 0 23.76 0 36 0 C40.87990514 14.5996066 40.87990514 14.5996066 43.02539062 21.02734375 C44.46565657 25.34225967 45.90619715 29.65708185 47.34887695 33.97119141 C52.34965795 48.92683233 57.32560654 63.89044344 62.19140625 78.890625 C62.57795883 80.07251404 62.96451141 81.25440308 63.36277771 82.47210693 C63.88618492 84.0951474 63.88618492 84.0951474 64.42016602 85.75097656 C64.88012718 87.16953949 64.88012718 87.16953949 65.34938049 88.61676025 C66 91 66 91 66 94 C56.76 94 47.52 94 38 94 C36.35 88.72 34.7 83.44 33 78 C23.1 78 13.2 78 3 78 C1.35 83.28 -0.3 88.56 -2 94 C-11.24 94 -20.48 94 -30 94 C-27.75025874 83.87616433 -27.75025874 83.87616433 -26.38696289 79.83618164 C-26.08190826 78.92443176 -25.77685364 78.01268188 -25.46255493 77.07330322 C-25.13588837 76.11196472 -24.8092218 75.15062622 -24.47265625 74.16015625 C-24.12745941 73.1315448 -23.78226257 72.10293335 -23.42660522 71.04315186 C-22.68955947 68.84807631 -21.95053551 66.65366416 -21.20968628 64.45986938 C-19.27893551 58.74198931 -17.36267487 53.01925561 -15.4453125 47.296875 C-15.06461105 46.16180008 -14.68390961 45.02672516 -14.29167175 43.85725403 C-9.40730302 29.27641444 -4.7034291 14.64025113 0 0 Z M17 29 C15.66212755 33.29026517 14.33047065 37.58243422 13 41.875 C12.42765625 43.70998047 12.42765625 43.70998047 11.84375 45.58203125 C11.4828125 46.74863281 11.121875 47.91523438 10.75 49.1171875 C10.24726562 50.73536377 10.24726562 50.73536377 9.734375 52.38623047 C8.90983655 54.86841146 8.90983655 54.86841146 9 57 C14.94 57 20.88 57 27 57 C24.7474152 47.51543241 21.97785646 38.2749047 19 29 C18.34 29 17.68 29 17 29 Z " fill="#FFFFFF" transform="translate(638,176)"/>
<path d="M0 0 C5.49293762 4.58139409 9.72409469 9.63226596 11.8125 16.51171875 C11.8125 19.15171875 11.8125 21.79171875 11.8125 24.51171875 C3.5625 24.51171875 -4.6875 24.51171875 -13.1875 24.51171875 C-14.1775 22.53171875 -15.1675 20.55171875 -16.1875 18.51171875 C-19.52798103 16.2847314 -20.72035581 16.24052665 -24.625 16.26171875 C-25.57246094 16.2565625 -26.51992188 16.25140625 -27.49609375 16.24609375 C-30.25287222 16.51817058 -31.88670676 16.99183255 -34.1875 18.51171875 C-35.35727494 20.86044406 -35.35727494 20.86044406 -35.1875 23.51171875 C-32.11387986 27.51279035 -29.06431053 28.38012845 -24.25 29.51171875 C-22.90454245 29.84602863 -21.55949628 30.181998 -20.21484375 30.51953125 C-19.20333252 30.76751465 -19.20333252 30.76751465 -18.17138672 31.02050781 C-6.49801564 33.91083794 3.58951848 37.15471654 10.66015625 47.4375 C14.54775895 54.43518486 14.63774907 61.98765249 12.5625 69.57421875 C9.79561612 77.96371528 5.51765832 82.39092205 -2.1875 86.51171875 C-15.70909369 92.48529952 -32.74944454 91.66121717 -46.5 86.88671875 C-54.10059247 83.50589508 -60.25860628 78.01003815 -63.546875 70.3125 C-65.41502631 65.06117224 -65.1875 61.38313261 -65.1875 55.51171875 C-56.9375 55.51171875 -48.6875 55.51171875 -40.1875 55.51171875 C-39.1975 58.15171875 -38.2075 60.79171875 -37.1875 63.51171875 C-33.53449458 67.16472417 -30.28687885 67.45936738 -25.25 67.69921875 C-20.69508901 67.63984375 -17.47085841 66.79507716 -14.1875 63.51171875 C-13.79316976 60.52959861 -13.79316976 60.52959861 -15.1875 57.51171875 C-20.60698344 53.33628559 -28.34730834 52.47588213 -34.87475586 51.00463867 C-44.52445427 48.80237229 -52.3870648 46.04777795 -59.1875 38.51171875 C-63.26775548 31.79904038 -64.26491834 24.89881046 -62.7265625 17.20703125 C-60.10454123 8.29215893 -55.15260202 2.23608992 -47.015625 -2.234375 C-32.63936949 -8.60837779 -13.3366108 -9.25227374 0 0 Z " fill="#FFFFFF" transform="translate(373.1875,181.48828125)"/>
<path d="M0 0 C22.44 0 44.88 0 68 0 C68 7.26 68 14.52 68 22 C54.14 22 40.28 22 26 22 C26 26.95 26 31.9 26 37 C38.87 37 51.74 37 65 37 C65 43.93 65 50.86 65 58 C52.13 58 39.26 58 26 58 C26 62.95 26 67.9 26 73 C39.86 73 53.72 73 68 73 C68 79.93 68 86.86 68 94 C45.56 94 23.12 94 0 94 C0 62.98 0 31.96 0 0 Z " fill="#FFFFFF" transform="translate(92,176)"/>
</svg>
